HIERARCHY
ROOT Hips
{
  OFFSET -69.4423 88.0299 51.6846
  CHANNELS 6 Xposition Yposition Zposition Zrotation Xrotation Yrotation
  JOINT Spine
  {
    OFFSET 12.0259 -0.162853 1.93176e-005
    CHANNELS 3 Zrotation Xrotation Yrotation
    JOINT Spine1
    {
      OFFSET 15.3169 -0.0121909 0
      CHANNELS 3 Zrotation Xrotation Yrotation
      JOINT Spine2
      {
        OFFSET 15.3176 -0.0121922 0
        CHANNELS 3 Zrotation Xrotation Yrotation
        JOINT Neck
        {
          OFFSET 19.9142 1.56236 0
          CHANNELS 3 Zrotation Xrotation Yrotation
          JOINT Head
          {
            OFFSET 6.92646 0 0
            CHANNELS 3 Zrotation Xrotation Yrotation
            End Site
            {
              OFFSET 20.7666 0 0
            }
          }
          JOINT LeftShoulder
          {
            OFFSET -4.94072 -1.14703 8.14416
            CHANNELS 3 Zrotation Xrotation Yrotation
            JOINT LeftArm
            {
              OFFSET 14.108 0 -2.74767e-005
              CHANNELS 3 Zrotation Xrotation Yrotation
              JOINT LeftForeArm
              {
                OFFSET 28.5802 -0.0783412 -0.0284884
                CHANNELS 3 Zrotation Xrotation Yrotation
                JOINT LeftHand
                {
                  OFFSET 27.092 0 0
                  CHANNELS 3 Zrotation Xrotation Yrotation
                  End Site
                  {
                    OFFSET 9.55928 -0.186424 0.145352
                  }
                }
              }
            }
          }
          JOINT RightShoulder
          {
            OFFSET -7.15748 -1.33027 -6.24935
            CHANNELS 3 Zrotation Xrotation Yrotation
            JOINT RightArm
            {
              OFFSET 14.108 0 1.82997e-005
              CHANNELS 3 Zrotation Xrotation Yrotation
              JOINT RightForeArm
              {
                OFFSET 28.5802 -0.0707221 2.30684e-005
                CHANNELS 3 Zrotation Xrotation Yrotation
                JOINT RightHand
                {
                  OFFSET 27.092 0 -1.30073e-005
                  CHANNELS 3 Zrotation Xrotation Yrotation
                  End Site
                  {
                    OFFSET 9.55929 -0.186417 -0.145354
                  }
                }
              }
            }
          }
        }
      }
    }
  }
  JOINT LeftUpLeg
  {
    OFFSET 0.00499725 -0.534999 8.837
    CHANNELS 3 Zrotation Xrotation Yrotation
    JOINT LeftLeg
    {
      OFFSET 39.9035 -0.00124594 0.000252775
      CHANNELS 3 Zrotation Xrotation Yrotation
      JOINT LeftFoot
      {
        OFFSET 39.6689 0 0
        CHANNELS 3 Zrotation Xrotation Yrotation
        JOINT LeftToe
        {
          OFFSET 10.1624 13.6296 0
          CHANNELS 3 Zrotation Xrotation Yrotation
          End Site
          {
            OFFSET 8.38147 0 0
          }
        }
      }
    }
  }
  JOINT RightUpLeg
  {
    OFFSET 0.00499725 -0.535 -8.837
    CHANNELS 3 Zrotation Xrotation Yrotation
    JOINT RightLeg
    {
      OFFSET 39.9036 -0.000268477 0.000106433
      CHANNELS 3 Zrotation Xrotation Yrotation
      JOINT RightFoot
      {
        OFFSET 39.6689 1.17892e-005 0
        CHANNELS 3 Zrotation Xrotation Yrotation
        JOINT RightToe
        {
          OFFSET 10.1624 13.6296 0
          CHANNELS 3 Zrotation Xrotation Yrotation
          End Site
          {
            OFFSET 8.38147 0 0
          }
        }
      }
    }
  }
}
MOTION
Frames:	6
Frame Time:	0.0333333
-29.6473 89.5598 55.6559 -89.1522 29.8949 173.901 1.34873 1.90063 0.87706 2.6704 3.82168 1.71063 2.6704 3.82165 1.71062 -16.9379 -1.79125 -12.9335 44.4157 -0.307648 12.6565 -165.461 -4.56921 -95.5223 -9.63793 6.93896 83.684 -21.7604 2.21276 -13.9318 8.93691 -82.3326 11.5366 -165.217 -6.59372 72.6035 -14.0164 0.198996 -78 -22.5643 -2.58045 13.8987 2.95257 81.7556 -2.79291 -23.8064 -0.962931 -173.985 -31.2526 0.692916 -1.30773 -4.85397 0.110477 0.0423588 90 0 -6.36111e-015 3.83558 -4.21987 -173.992 -18.9182 -0.780969 0.297015 1.42229 2.18059 -0.269478 90 -7.95139e-015 3.18055e-015 
-27.4071 89.4189 56.6585 -90.1904 28.8725 174.418 1.23941 1.98118 0.829333 2.45219 3.98016 1.61719 2.45218 3.98016 1.61718 -17.2711 -1.70762 -12.6118 44.2588 -0.170036 12.5742 -165.137 -4.52724 -95.2309 -10.0856 7.63955 84.1286 -22.0006 2.25043 -14.0517 12.2303 -84.2269 14.8347 -164.828 -6.49405 72.9787 -14.38 1.07505 -77.2709 -23.5827 -2.80413 14.4483 3.30149 82.6749 -3.15546 -23.5148 -1.94052 -174.068 -21.6345 0.573348 -1.6945 -6.30931 -3.78345 -1.04748 90 1.61513e-015 -3.18055e-015 5.38731 -3.7461 -173.819 -17.4847 -0.782505 0.32936 1.36637 3.37224 -0.118467 90 -1.59028e-015 -3.18055e-015 
-24.9947 89.3007 57.6328 -91.1445 28.0614 174.756 1.10422 2.02014 0.855834 2.18019 4.05666 1.67426 2.18016 4.05665 1.67424 -17.6195 -1.54873 -12.5705 44.1616 -0.0203576 12.3718 -164.79 -4.47987 -95.2034 -8.61911 7.84639 84.7789 -21.742 2.2136 -13.9237 9.57237 -83.778 12.1879 -164.455 -6.38096 73.0306 -14.877 1.6032 -76.6361 -24.7407 -3.07423 15.0823 4.38938 84.3407 -4.26279 -23.2051 -3.42313 -174.041 -13.8552 0.423815 -1.96009 -6.6595 -6.66616 -1.89 90 -6.36111e-015 -9.54166e-015 7.14804 -3.5309 -173.644 -15.9901 -0.786524 0.354831 1.39756 4.12329 -0.0400023 90 -4.77083e-015 -1.27222e-014 
-22.3868 88.9989 58.5031 -91.7639 27.2941 175.063 1.02384 2.03227 0.859015 2.01896 4.07984 1.6833 2.01894 4.07981 1.68328 -17.8653 -1.46619 -12.6012 43.9596 0.0156221 12.2706 -164.542 -4.48594 -95.1826 -6.84987 7.61708 85.3983 -21.0575 2.12726 -13.5754 9.5489 -83.0279 12.1939 -164.205 -6.35235 73.025 -15.2738 2.02669 -76.0716 -25.8042 -3.33193 15.6586 5.81794 85.6811 -5.70589 -22.9035 -4.20721 -174.282 -9.40707 0.332513 -2.10707 -5.76508 -8.52904 -2.19736 90 -7.95139e-016 -3.18055e-015 8.796 -2.5853 -173.856 -14.916 -0.790342 0.374583 1.04599 4.63529 0.0703138 90 1.59028e-015 9.54166e-015 
-19.6821 88.8175 59.2241 -92.189 26.0092 175.147 0.935836 1.95835 0.901335 1.84234 3.93136 1.77223 1.84233 3.93138 1.77222 -18.0458 -1.5036 -12.7657 44.1824 -0.0113115 12.437 -164.398 -4.62655 -95.2722 -6.60586 7.60688 85.8329 -20.2964 2.01376 -13.1901 9.48062 -82.9601 12.1959 -164.075 -6.48953 72.9137 -15.2199 2.14231 -75.9944 -26.904 -3.60326 16.2494 7.33394 86.7664 -7.25012 -23.4153 -2.65512 -174.697 -10.1733 0.30612 -2.10514 -7.40667 -9.9161 -2.91834 90 -3.97569e-015 3.18055e-015 10.6782 -2.56351 -173.833 -14.0174 -0.790706 0.376561 -0.0868365 5.25335 0.341302 90 7.95139e-015 -0 
-16.6611 88.7032 59.911 -92.244 24.9591 175.484 0.974062 1.88621 0.877016 1.92067 3.78743 1.72338 1.92066 3.78741 1.72337 -18.2583 -1.42249 -12.7777 43.9548 0.114961 12.4456 -164.144 -4.60518 -95.2056 -5.4757 6.8202 86.269 -19.2239 1.86616 -12.645 9.5332 -81.9292 12.214 -163.861 -6.4766 72.8906 -15.2492 2.18364 -75.9722 -27.8615 -3.8488 16.7518 9.49486 87.5489 -9.407 -23.5507 1.19325 -175.499 -12.9865 0.300856 -2.02917 -10.2657 -10.883 -3.85305 90 7.95139e-016 3.18055e-015 12.6298 -1.65921 -174.317 -13.6552 -0.778718 0.36304 -1.56912 6.24124 0.774164 90 -6.36111e-015 3.18055e-015 
